<?xml version="1.0" encoding="UTF-8" standalone="no"?>
<!-- Created with Inkscape (http://www.inkscape.org/) -->

<svg
   width="86.610779mm"
   height="86.610794mm"
   viewBox="0 0 86.610779 86.610794"
   version="1.1"
   id="svg1"
   xmlns="http://www.w3.org/2000/svg"
   xmlns:svg="http://www.w3.org/2000/svg">
  <defs
     id="defs1" />
  <g
     id="layer1"
     transform="translate(-67.825396,-87.823056)">
    <circle
       style="fill:#c83737;fill-opacity:1;stroke-width:0.265;stroke-dasharray:none"
       id="path1"
       cx="111.13079"
       cy="131.12845"
       r="43.305393" />
    <path
       style="fill:#f9f9f9;fill-rule:evenodd;stroke:#f9f9f9;stroke-width:0.264583"
       id="path8"
       d="m 110.5694,121.60764 c -0.29224,0.50617 -0.82649,-0.1442 -0.84129,-0.48571 -0.0401,-0.92549 1.04112,-1.36571 1.81272,-1.19686 1.38021,0.30202 1.95839,1.89175 1.55243,3.13973 -0.59575,1.83146 -2.75245,2.56457 -4.46673,1.908 -2.28488,-0.87511 -3.17628,-3.61653 -2.26358,-5.79375 1.14855,-2.73979 4.48218,-3.79078 7.12075,-2.61914 3.19566,1.41902 4.40691,5.3487 2.97472,8.44776 -1.68779,3.65212 -6.21577,5.02403 -9.77476,3.33028 -4.10901,-1.9555 -5.64185,-7.08319 -3.68586,-11.10177 2.22252,-4.56616 7.95087,-6.26012 12.42877,-4.04142 5.02353,2.48904 6.87875,8.81873 4.397,13.75578 -2.75521,5.48105 -9.68674,7.49762 -15.08278,4.75257 -5.938699,-3.02112 -8.116705,-10.55486 -5.108144,-16.4098 3.286814,-6.39642 11.423064,-8.73593 17.736794,-5.46371 6.85424,3.55235 9.35529,12.29133 5.81929,19.06381 -3.81776,7.3121 -13.15966,9.97474 -20.39082,6.17485 -7.770018,-4.08306 -10.594281,-14.02803 -6.530418,-21.71782 4.348288,-8.22798 14.896438,-11.21389 23.044818,-6.88599 8.68598,4.61343 11.83357,15.76489 7.24157,24.37183 -4.87853,9.14399 -16.63336,12.45328 -25.69884,7.59713 -9.602037,-5.14356 -13.073032,-17.50185 -7.952703,-27.02584 5.408563,-10.06011 18.370373,-13.692828 28.352853,-8.30827 10.51819,5.67352 14.31265,19.2389 8.66384,29.67985 -5.93844,10.9763 -20.10746,14.93251 -31.006857,9.01942 -11.434413,-6.20335 -15.552389,-20.97603 -9.37499,-32.33387 6.468218,-11.892541 21.844607,-16.172288 33.660877,-9.730559 12.35068,6.733069 16.7922,22.713189 10.08613,34.987879 -6.9979,12.80883 -23.58179,17.41214 -36.314887,10.4417 C 83.70231,137.90101 78.937207,120.71332 86.172029,107.52183 93.69954,93.796671 111.49104,88.86977 125.14093,96.368987 c 14.18333,7.792293 19.27204,26.187633 11.50841,40.295903 -8.05706,14.64152 -27.05627,19.89203 -41.622908,11.86399 C 79.92673,140.20705 74.514405,120.60397 82.806875,105.57896 91.393448,90.021067 111.60042,84.446925 127.0838,93.003833 c 16.01609,8.851307 21.75205,29.662187 12.9307,45.603927 -9.11605,16.47429 -30.53084,22.37208 -46.930938,13.28627"
       transform="matrix(1.179546,0,0,1.179546,-20.583448,-13.576296)" />
    <path
       style="fill:#ff5555;fill-rule:evenodd;stroke:#ff5555;stroke-width:0.264583"
       id="path8-7"
       d="m 110.5694,121.60764 c -0.29224,0.50617 -0.82649,-0.1442 -0.84129,-0.48571 -0.0401,-0.92549 1.04112,-1.36571 1.81272,-1.19686 1.38021,0.30202 1.95839,1.89175 1.55243,3.13973 -0.59575,1.83146 -2.75245,2.56457 -4.46673,1.908 -2.28488,-0.87511 -3.17628,-3.61653 -2.26358,-5.79375 1.14855,-2.73979 4.48218,-3.79078 7.12075,-2.61914 3.19566,1.41902 4.40691,5.3487 2.97472,8.44776 -1.68779,3.65212 -6.21577,5.02403 -9.77476,3.33028 -4.10901,-1.9555 -5.64185,-7.08319 -3.68586,-11.10177 2.22252,-4.56616 7.95087,-6.26012 12.42877,-4.04142 5.02353,2.48904 6.87875,8.81873 4.397,13.75578 -2.75521,5.48105 -9.68674,7.49762 -15.08278,4.75257 -5.938699,-3.02112 -8.116705,-10.55486 -5.108144,-16.4098 3.286814,-6.39642 11.423064,-8.73593 17.736794,-5.46371 6.85424,3.55235 9.35529,12.29133 5.81929,19.06381 -3.81776,7.3121 -13.15966,9.97474 -20.39082,6.17485 -7.770018,-4.08306 -10.594281,-14.02803 -6.530418,-21.71782 4.348288,-8.22798 14.896438,-11.21389 23.044818,-6.88599 8.68598,4.61343 11.83357,15.76489 7.24157,24.37183 -4.87853,9.14399 -16.63336,12.45328 -25.69884,7.59713 -9.602037,-5.14356 -13.073032,-17.50185 -7.952703,-27.02584 5.408563,-10.06011 18.370373,-13.692828 28.352853,-8.30827 10.51819,5.67352 14.31265,19.2389 8.66384,29.67985 -5.93844,10.9763 -20.10746,14.93251 -31.006857,9.01942 -11.434413,-6.20335 -15.552389,-20.97603 -9.37499,-32.33387 6.468218,-11.892541 21.844607,-16.172288 33.660877,-9.730559 12.35068,6.733069 16.7922,22.713189 10.08613,34.987879 -6.9979,12.80883 -23.58179,17.41214 -36.314887,10.4417 C 83.70231,137.90101 78.937207,120.71332 86.172029,107.52183 93.69954,93.796671 111.49104,88.86977 125.14093,96.368987 c 14.18333,7.792293 19.27204,26.187633 11.50841,40.295903 -8.05706,14.64152 -27.05627,19.89203 -41.622908,11.86399 C 79.92673,140.20705 74.514405,120.60397 82.806875,105.57896 91.393448,90.021067 111.60042,84.446925 127.0838,93.003833 c 16.01609,8.851307 21.75205,29.662187 12.9307,45.603927 -9.11605,16.47429 -30.53084,22.37208 -46.930938,13.28627"
       transform="matrix(1.1662875,-0.17635833,0.17635833,1.1662875,-38.747375,8.9618623)" />
  </g>
</svg>
